<svg xmlns="http://www.w3.org/2000/svg" viewBox="0 0 100 100" width="100" height="100">
	<style>
		tspan { white-space:pre }
		.shp0 { fill: #ffffff } 
	</style>
	<path id="Background" class="shp0" d="M83.71 54.62C83.47 54.5 83.24 54.44 83 54.44C82.49 54.44 82.04 54.64 81.65 55.05L77.89 58.92C77.54 59.28 77.36 59.72 77.36 60.25L77.36 75.6C77.36 78.26 76.44 80.54 74.6 82.43C72.75 84.33 70.54 85.28 67.96 85.28L19.06 85.28C16.47 85.28 14.26 84.33 12.42 82.43C10.57 80.54 9.65 78.26 9.65 75.6L9.65 25.3C9.65 22.64 10.57 20.36 12.42 18.47C14.26 16.58 16.47 15.63 19.06 15.63L67.96 15.63C68.82 15.63 69.7 15.75 70.6 15.99C70.84 16.07 71.01 16.11 71.13 16.11C71.64 16.11 72.09 15.91 72.48 15.51L75.36 12.54C75.83 12.06 76.01 11.48 75.89 10.79C75.77 10.15 75.42 9.68 74.83 9.4C72.72 8.39 70.42 7.89 67.96 7.89L19.06 7.89C14.39 7.89 10.41 9.59 7.1 13C3.79 16.4 2.13 20.51 2.13 25.3L2.13 75.6C2.13 80.4 3.79 84.5 7.1 87.91C10.41 91.31 14.39 93.01 19.06 93.01L67.96 93.01C72.62 93.01 76.6 91.31 79.92 87.91C83.23 84.5 84.88 80.4 84.88 75.6L84.88 56.38C84.88 55.53 84.49 54.95 83.71 54.62L83.71 54.62ZM99.87 23.37C99.87 22.04 99.4 20.89 98.46 19.92L91.99 13.27C91.05 12.3 89.94 11.82 88.64 11.82C87.35 11.82 86.23 12.3 85.29 13.27L47.27 52.39L31.81 36.49C30.87 35.52 29.75 35.03 28.46 35.03C27.17 35.03 26.05 35.52 25.11 36.49L18.65 43.14C17.71 44.1 17.24 45.25 17.24 46.58C17.24 47.91 17.71 49.06 18.65 50.03L43.92 76.03C44.86 76.99 45.98 77.48 47.27 77.48C48.56 77.48 49.68 76.99 50.62 76.03L98.46 26.81C99.4 25.85 99.87 24.7 99.87 23.37Z" />
</svg>